<svg width="106" height="98" viewBox="0 0 106 98" fill="none" xmlns="http://www.w3.org/2000/svg">
<g filter="url(#filter0_d)">
<path d="M10 3C10 1.34315 11.3431 0 13 0H103C104.657 0 106 1.34315 106 3V78C106 83.5229 101.523 88 96 88H20C14.4772 88 10 83.5229 10 78V3Z" fill="#E67A7A"/>
<path d="M91.3218 25.835C90.6515 25.2979 89.0131 24.5307 85.1405 24.2238C78.4379 23.6868 70.3203 24.3773 62.575 23.3799C55.7979 22.5359 47.9037 25.2979 45.6695 24.2238C43.3609 23.1497 44.4035 20.0808 41.2756 17.2421C38.1477 14.4033 34.7219 17.3188 34.7219 17.3188C31.5196 16.7817 30.9983 19.3136 30.9983 19.3136C30.9983 19.3136 27.7959 19.467 26.232 20.6179C25.3383 21.2316 24.817 23.073 24.5191 24.454C24.3701 25.4514 25.1149 26.2953 26.0085 26.2186L27.0512 27.5996L27.5725 26.2186L29.062 26.9091L29.5088 25.6816L31.0727 26.6022L31.4451 24.9911L32.7112 25.5281L33.0091 24.1471C33.0091 24.1471 34.573 23.7635 35.0943 25.4514C35.2433 25.835 35.0198 26.2186 34.573 26.6022H33.4559L32.7112 27.9065L31.6685 27.5229L31.1472 28.8272L30.1791 28.2901V29.3642C29.6577 29.6711 29.5088 30.3616 29.9556 30.8987C30.2535 31.2823 30.7748 31.359 31.1472 31.0521L36.4348 29.0573L38.5201 30.0547L38.669 32.1262C38.669 32.1262 35.5411 32.9702 34.6475 34.5814C33.7538 36.1925 34.1262 37.3434 35.1688 36.7296C36.2114 36.1925 36.2859 34.3512 40.0096 33.9676V33.8909C40.3819 34.2745 40.8288 34.5814 41.2011 34.8115C41.3501 36.883 38.1477 37.6503 39.0414 39.2614C40.084 41.1028 40.7543 39.2614 40.7543 39.2614L42.6906 36.883C42.914 37.6503 44.1801 39.8752 45.893 40.8726C49.2443 42.714 51.1061 44.7855 51.1061 44.7855L50.0635 48.238C48.723 48.6216 47.5314 49.7724 47.159 50.4629C47.0101 50.6931 47.159 51 47.4569 51H51.5529C51.7764 51 51.9253 50.9233 51.9998 50.6931C52.2977 50.0793 53.0424 48.6216 53.4148 47.0872C54.8298 43.4812 51.9998 41.4097 51.9998 41.4097C51.2551 40.1054 50.5103 39.108 50.5103 39.108L54.0106 37.1132C60.3408 42.714 64.8092 42.714 64.8092 44.0182C64.8092 45.3225 63.9155 48.1613 62.724 48.3914C61.8303 48.5449 61.2345 49.7724 61.0111 50.4629C60.9366 50.6931 61.0855 50.9233 61.309 50.9233H65.7774C66.0753 50.9233 66.2987 50.6931 66.2987 50.4629C66.6711 47.0871 69.4266 44.3251 68.7563 42.9441C68.0861 41.4864 65.7774 42.4071 63.99 40.0287C62.2027 37.6503 60.9366 36.7296 60.9366 36.7296L64.7347 33.6607C70.2458 28.6737 81.9381 28.9806 91.3963 26.6022C91.4707 26.5255 91.6197 26.0652 91.3218 25.835ZM33.5304 21.0782C33.0835 21.0782 32.7856 20.6946 32.7856 20.311C32.7856 19.8506 33.158 19.5437 33.5304 19.5437C33.9027 19.5437 34.2751 19.9274 34.2751 20.311C34.2751 20.7713 33.9772 21.0782 33.5304 21.0782Z" fill="#952929"/>
<path d="M27.7611 73L31.5131 67.96L27.9431 63.13H29.2871L32.1851 67.092L35.0551 63.13H36.4131L32.8291 67.96L36.5811 73H35.2231L32.1711 68.828L29.1331 73H27.7611ZM37.8466 73V66.196H38.8826V71.46L42.8166 66.196H43.7826V73H42.7466V67.736L38.8126 73H37.8466ZM55.0663 74.82V73H46.0223V66.196H47.1143V72.09H49.9563V66.196H51.0343V72.09H53.8763V66.196H54.9683V72.09H56.0463V74.82H55.0663ZM57.5614 73V66.196H58.6954V69.024H62.4054V66.196H63.5394V73H62.4054V69.948H58.6954V73H57.5614ZM65.7782 73V66.196H66.8142V71.46L70.7482 66.196H71.7142V73H70.6782V67.736L66.7442 73H65.7782ZM73.954 73V66.196H75.088V69.038H76.362L78.588 66.196H79.834L77.468 69.262C77.7107 69.3553 77.93 69.5093 78.126 69.724C78.322 69.9387 78.5413 70.2467 78.784 70.648L80.184 73H78.966L77.734 70.942C77.5007 70.5407 77.2767 70.2747 77.062 70.144C76.8473 70.0133 76.544 69.948 76.152 69.948H75.088V73H73.954ZM81.3231 73V66.196H82.3591V71.46L86.2931 66.196H87.2591V73H86.2231V67.736L82.2891 73H81.3231Z" fill="#272526"/>
</g>
<defs>
<filter id="filter0_d" x="0" y="0" width="106" height="98" filterUnits="userSpaceOnUse" color-interpolation-filters="sRGB">
<feFlood flood-opacity="0" result="BackgroundImageFix"/>
<feColorMatrix in="SourceAlpha" type="matrix" values="0 0 0 0 0 0 0 0 0 0 0 0 0 0 0 0 0 0 127 0" result="hardAlpha"/>
<feOffset dx="-5" dy="5"/>
<feGaussianBlur stdDeviation="2.5"/>
<feComposite in2="hardAlpha" operator="out"/>
<feColorMatrix type="matrix" values="0 0 0 0 0.901961 0 0 0 0 0.478431 0 0 0 0 0.478431 0 0 0 0.29 0"/>
<feBlend mode="normal" in2="BackgroundImageFix" result="effect1_dropShadow"/>
<feBlend mode="normal" in="SourceGraphic" in2="effect1_dropShadow" result="shape"/>
</filter>
</defs>
</svg>
