<svg width="106" height="98" viewBox="0 0 106 98" fill="none" xmlns="http://www.w3.org/2000/svg">
<g filter="url(#filter0_d)">
<path d="M10 3C10 1.34315 11.3431 0 13 0H103C104.657 0 106 1.34315 106 3V78C106 83.5228 101.523 88 96 88H20C14.4772 88 10 83.5228 10 78V3Z" fill="#97D9A1"/>
<path d="M55.2109 13.846C55.741 13.846 56.2712 13.8459 56.8013 13.9217C58.0887 9.75645 50.97 6.5 50.97 6.5C50.97 6.5 47.1077 10.3623 46.5018 12.71C46.1989 13.9217 46.8047 15.0577 47.4863 15.8907C49.6068 14.679 52.1059 13.846 55.2109 13.846Z" fill="#489D55"/>
<path d="M83.6859 35.4294C83.6859 35.4294 82.1713 35.1265 81.3383 35.6566C82.0956 36.4139 82.8529 37.0198 83.6859 37.5499C83.9131 36.7926 83.6859 35.4294 83.6859 35.4294Z" fill="#489D55"/>
<path d="M80.7323 34.9751C80.8838 34.8994 80.9595 34.7479 81.0352 34.5964C81.4896 33.6119 81.2624 31.1885 81.2624 31.1885C81.2624 31.1885 78.9905 30.7341 77.7031 31.4157C78.6876 32.7789 79.6721 33.9149 80.7323 34.9751Z" fill="#489D55"/>
<path d="M87.3966 34.7477C87.4723 34.5205 87.1694 34.4448 87.0179 34.5963L85.0489 38.3828C85.5033 38.61 85.8819 38.8372 86.3363 39.0644L87.3966 34.7477Z" fill="#489D55"/>
<path d="M88.23 39.7463L89.8203 36.717C89.896 36.4898 89.6688 36.3383 89.5174 36.4898L87.0182 39.2919C87.4726 39.5191 87.8513 39.6705 88.23 39.7463Z" fill="#489D55"/>
<path d="M91.7891 37.6255L88.7598 39.8975C89.1385 39.9732 89.5929 40.0489 89.9715 40.1247C90.123 40.1247 90.3502 40.1247 90.6531 40.0489L92.0163 37.8527C92.1677 37.7012 91.9405 37.474 91.7891 37.6255Z" fill="#489D55"/>
<path d="M73.5381 24.9786C74.0683 25.7359 74.5227 26.4932 75.0528 27.3263C75.8101 28.6137 76.5674 29.8254 77.3247 30.8856C77.6276 30.7342 78.0063 30.507 78.1578 30.204C79.0665 28.9166 79.3695 25.2815 79.3695 25.2815C79.3695 25.2815 75.5829 23.6911 73.5381 24.9786Z" fill="#489D55"/>
<path d="M36.8081 24.9027C37.414 24.5998 38.0198 24.2969 38.6257 23.9182C38.8529 23.7668 39.0043 23.691 39.2315 23.5396C39.5345 23.3881 40.0646 22.858 40.5947 22.1764C39.4587 21.1919 37.0353 21.3433 37.0353 21.3433C37.0353 21.3433 36.4295 23.691 36.7324 24.6755C36.7324 24.7513 36.8081 24.827 36.8081 24.9027Z" fill="#489D55"/>
<path d="M34.6874 25.4328C35.1418 25.4328 35.6719 25.3571 36.2021 25.1299C35.5962 24.1454 34.6117 23.3881 34.6117 23.3881C34.6117 23.3881 34.0816 24.4483 33.9301 25.2813C34.0058 25.2813 34.0816 25.3571 34.1573 25.3571C34.3088 25.4328 34.536 25.4328 34.6874 25.4328Z" fill="#489D55"/>
<path d="M41.4278 21.2677C42.7909 19.7531 44.5327 17.7083 46.9562 16.1937C45.593 13.6946 40.3675 13.9975 40.3675 13.9975C40.3675 13.9975 39.3073 17.9355 39.8374 19.6774C40.0646 20.4347 40.7462 20.8891 41.4278 21.2677Z" fill="#489D55"/>
<path d="M62.0268 15.0576C62.0268 15.0576 63.9201 15.7392 66.495 17.6325C69.6757 14.9819 66.192 8.3175 66.192 8.3175C66.192 8.3175 60.7394 9.07482 58.8461 10.5137C57.7859 11.3468 57.6344 12.8614 57.7101 13.9216C59.0733 14.2246 60.5122 14.5275 62.0268 15.0576Z" fill="#489D55"/>
<path d="M72.9321 24.1454C73.9166 23.8424 75.2041 23.2366 75.6584 22.1006C76.4158 20.1316 75.4313 15.4362 75.4313 15.4362C75.4313 15.4362 68.5397 14.6032 67.2523 18.1626C68.9941 19.5257 70.9631 21.4948 72.9321 24.1454Z" fill="#489D55"/>
<path d="M90.9562 41.1092C90.5018 41.1092 90.0474 41.1849 90.0474 41.1849C88.8357 41.0335 87.624 40.7305 86.4123 40.2004H86.3365C85.8064 39.9732 85.2763 39.6703 84.6704 39.3674C84.3675 39.2159 84.1403 39.0645 83.8374 38.8373C83.8374 38.8373 83.7617 38.8373 83.7617 38.7615C83.4587 38.6101 83.2316 38.3829 82.9286 38.2314C82.1713 37.7013 81.4897 37.0954 80.7324 36.4139C80.581 36.2624 80.4295 36.1109 80.2023 35.9595C78.8391 34.5963 77.476 33.0059 76.1885 31.1127C75.5069 30.1281 74.7496 28.9922 74.068 27.8562C73.6137 27.0989 73.1593 26.4173 72.7049 25.7357C72.402 25.2813 72.0233 24.8269 71.7204 24.3726C70.13 22.2521 68.4639 20.586 66.9493 19.3743C66.7221 19.1471 66.4192 18.9956 66.192 18.7684C65.9648 18.617 65.7376 18.3898 65.5104 18.2383C63.5414 16.8751 62.1025 16.1936 61.6481 16.0421C60.2849 15.5877 59.0732 15.2848 57.8615 15.0576C57.6343 15.0576 57.4071 14.9819 57.1799 14.9819C56.9527 14.9819 56.7255 14.9061 56.5741 14.9061C56.4984 14.9061 56.4984 14.9061 56.4226 14.9061C56.2712 14.9061 56.1197 14.9061 55.8925 14.9061C55.6653 14.9061 55.4381 14.9061 55.2109 14.9061C54.9837 14.9061 54.6808 14.9061 54.4536 14.9061C54.3779 14.9061 54.3021 14.9061 54.2264 14.9061C53.9992 14.9061 53.772 14.9061 53.6206 14.9819H53.5448C53.3176 14.9819 53.0904 15.0576 52.8632 15.0576C52.7875 15.0576 52.7118 15.0576 52.7118 15.0576C52.5603 15.0576 52.3331 15.1333 52.1817 15.1333C52.1059 15.1333 52.1059 15.1333 52.0302 15.1333C51.803 15.2091 51.5758 15.2091 51.4243 15.2848C51.3486 15.2848 51.3486 15.2848 51.2729 15.3605C51.1214 15.4362 50.97 15.4363 50.8185 15.512C50.7428 15.512 50.667 15.5877 50.667 15.5877C50.4398 15.6634 50.2884 15.7392 50.0612 15.8149C49.9855 15.8149 49.9855 15.8906 49.9097 15.8906C49.7583 15.9664 49.6068 16.0421 49.4553 16.0421C49.3796 16.0421 49.3039 16.1178 49.2281 16.1178C49.0767 16.1936 48.9252 16.2693 48.7737 16.345C48.698 16.345 48.6223 16.4208 48.6223 16.4208C48.4708 16.4965 48.3194 16.5722 48.2436 16.648C48.1679 16.7237 48.0922 16.7237 48.0164 16.7994C47.865 16.8751 47.7892 16.9509 47.7135 17.0266C47.6378 17.0266 47.6378 17.1023 47.562 17.1023C45.5173 18.4655 43.9269 20.1316 42.7152 21.5705C42.5638 21.722 42.488 21.8734 42.3366 21.9492C41.9579 22.3278 41.655 22.7065 41.3521 23.0851C40.8219 23.691 40.3676 24.1454 39.9132 24.3726C39.0801 24.8269 38.1713 25.4328 37.2626 25.8115C37.1111 25.8872 36.8839 25.9629 36.7325 26.0386C36.1266 26.2658 35.5207 26.4173 34.8392 26.4173C34.612 26.4173 34.3848 26.4173 34.1576 26.3416C33.0216 26.1901 31.8856 25.7357 30.8254 25.7357C30.371 25.7357 29.9166 25.8115 29.4622 26.0386C27.5689 27.0232 25.8271 28.3106 25.8271 28.3106C24.6912 28.9164 23.9338 31.1884 23.9338 31.1884L26.8116 30.8097C25.8271 31.1884 24.2368 31.7942 24.2368 31.7942C24.6912 32.4001 25.4485 32.7787 26.2815 32.7787C26.3572 32.7787 26.3572 32.7787 26.433 32.7787L28.8564 32.6273C29.1593 32.5516 29.538 32.5516 29.9924 32.5516C30.2195 32.5516 30.5225 32.5516 30.7497 32.5516C31.507 32.5516 32.34 32.5516 33.476 32.2486C33.5517 32.2486 33.6275 32.2486 33.7032 32.2486C34.7634 32.2486 36.6567 33.6118 37.414 34.0662C40.0646 35.6565 40.4433 35.8837 40.4433 35.8837H40.3676L40.5948 36.5653C41.4278 38.8373 40.5948 40.4276 40.5948 40.4276C40.5948 40.4276 37.7927 45.0472 36.8082 46.7891C36.8082 46.7891 35.8237 47.6221 35.445 48.7581H39.686C39.686 48.7581 40.2918 46.5619 40.2918 45.6531C40.2918 44.7443 44.9114 42.5481 44.9872 40.6548C45.1386 38.7615 45.3658 37.9285 47.1077 37.3226C49.0009 38.1557 51.2729 38.6858 53.772 38.6858C56.877 38.6858 58.846 38.0799 60.3607 37.3226C60.6636 38.6101 60.9665 39.746 61.1937 40.3519C62.0268 42.3966 63.5414 40.3519 64.1472 44.1385C64.1472 44.1385 63.5414 47.2435 62.5569 48.228C61.8753 48.9095 61.6481 49.7426 61.4966 50.197C61.4966 50.3484 61.5724 50.4999 61.7996 50.4999H66.6464C66.6464 50.4999 67.025 49.3639 66.6464 47.8493C66.2677 46.3347 67.6309 45.7288 66.7978 41.8665C66.0405 38.0042 67.4037 40.5791 67.025 36.5653C67.7823 36.3381 68.5397 36.2624 69.2212 36.2624C71.0388 36.2624 72.4777 36.8682 73.4622 37.4741C80.1266 41.4879 84.6705 42.9268 87.624 42.9268C89.593 42.9268 90.8047 42.3209 91.4105 41.3364C91.562 41.1849 91.2591 41.1092 90.9562 41.1092ZM29.1593 29.2194C28.7806 29.2194 28.4777 28.9164 28.4777 28.5378C28.4777 28.1591 28.7806 27.8562 29.1593 27.8562C29.538 27.8562 29.8409 28.1591 29.8409 28.5378C29.8409 28.9164 29.538 29.2194 29.1593 29.2194Z" fill="#489D55"/>
<path d="M53.1661 41.0336C52.4088 40.8821 51.4242 41.5637 51.3485 40.5792C51.3485 40.2763 51.3485 39.8976 51.3485 39.5947C49.9096 39.3675 48.4707 39.0646 47.0318 38.4587C46.9561 38.4587 46.8804 38.5345 46.8046 38.5345C47.1833 39.5947 47.6377 40.8821 48.1678 41.7909C49.3038 43.9871 51.8786 44.1386 52.7874 44.1386C53.469 44.1386 53.6205 42.624 53.6962 41.7909C53.7719 41.4123 53.5447 41.1093 53.1661 41.0336Z" fill="#489D55"/>
<path d="M55.9683 40.0491C56.1955 41.7152 55.9683 44.8959 55.3625 45.6532C54.7566 46.4105 53.7721 46.7892 53.7721 47.8494H58.1645C58.1645 47.8494 59.149 47.1679 59.149 46.4105C59.149 45.6532 58.9976 45.0474 59.149 41.7909C59.2248 40.7307 59.3762 39.6704 59.452 38.8374C58.316 39.2161 57.18 39.519 55.8168 39.5947C55.8926 39.7462 55.8926 39.8976 55.9683 40.0491Z" fill="#489D55"/>
<path d="M21.3148 72.5V63.624H17.7308V62.63H26.0608V63.624H22.4768V72.5H21.3148ZM26.1643 75.02V65.696H27.2703V66.914C27.4756 66.494 27.7789 66.1673 28.1803 65.934C28.5909 65.6913 29.0669 65.57 29.6083 65.57C30.2149 65.57 30.7423 65.7147 31.1903 66.004C31.6476 66.284 31.9976 66.69 32.2403 67.222C32.4923 67.7447 32.6183 68.37 32.6183 69.098C32.6183 69.8167 32.4923 70.442 32.2403 70.974C31.9976 71.4967 31.6476 71.9027 31.1903 72.192C30.7423 72.4813 30.2149 72.626 29.6083 72.626C29.0856 72.626 28.6189 72.5093 28.2083 72.276C27.7976 72.0427 27.4943 71.7207 27.2983 71.31V75.02H26.1643ZM29.3703 71.716C30.0049 71.716 30.5136 71.492 30.8963 71.044C31.2789 70.5867 31.4703 69.938 31.4703 69.098C31.4703 68.2487 31.2789 67.6 30.8963 67.152C30.5136 66.704 30.0049 66.48 29.3703 66.48C28.7356 66.48 28.2269 66.704 27.8443 67.152C27.4616 67.6 27.2703 68.2487 27.2703 69.098C27.2703 69.938 27.4616 70.5867 27.8443 71.044C28.2269 71.492 28.7356 71.716 29.3703 71.716ZM36.6051 72.626C36.1384 72.626 35.7184 72.5373 35.3451 72.36C34.9811 72.1733 34.6918 71.9213 34.4771 71.604C34.2624 71.2867 34.1551 70.932 34.1551 70.54C34.1551 70.0453 34.2811 69.6533 34.5331 69.364C34.7944 69.0747 35.2191 68.8693 35.8071 68.748C36.4044 68.6173 37.2164 68.552 38.2431 68.552H38.6911V68.118C38.6911 67.5393 38.5698 67.124 38.3271 66.872C38.0938 66.6107 37.7158 66.48 37.1931 66.48C36.7824 66.48 36.3858 66.5407 36.0031 66.662C35.6204 66.774 35.2284 66.9607 34.8271 67.222L34.4351 66.396C34.7898 66.144 35.2191 65.9433 35.7231 65.794C36.2364 65.6447 36.7264 65.57 37.1931 65.57C38.0704 65.57 38.7191 65.7847 39.1391 66.214C39.5684 66.6433 39.7831 67.3107 39.7831 68.216V72.5H38.7191V71.324C38.5418 71.7253 38.2664 72.0427 37.8931 72.276C37.5291 72.5093 37.0998 72.626 36.6051 72.626ZM36.7871 71.772C37.3471 71.772 37.8044 71.5807 38.1591 71.198C38.5138 70.806 38.6911 70.3113 38.6911 69.714V69.294H38.2571C37.5011 69.294 36.9038 69.3313 36.4651 69.406C36.0358 69.4713 35.7324 69.5927 35.5551 69.77C35.3871 69.938 35.3031 70.1713 35.3031 70.47C35.3031 70.8527 35.4338 71.1653 35.6951 71.408C35.9658 71.6507 36.3298 71.772 36.7871 71.772ZM41.996 72.5V65.696H45.314C46.1166 65.696 46.7093 65.85 47.092 66.158C47.4746 66.4567 47.666 66.9 47.666 67.488C47.666 67.8427 47.5633 68.1507 47.358 68.412C47.162 68.6733 46.8913 68.8647 46.546 68.986C46.966 69.0887 47.2926 69.2847 47.526 69.574C47.7686 69.8633 47.89 70.2133 47.89 70.624C47.89 71.2027 47.6753 71.66 47.246 71.996C46.8166 72.332 46.21 72.5 45.426 72.5H41.996ZM43.074 68.65H45.258C45.6873 68.65 46.0186 68.5567 46.252 68.37C46.4853 68.174 46.602 67.8987 46.602 67.544C46.602 67.1987 46.4853 66.9327 46.252 66.746C46.0186 66.5593 45.6873 66.466 45.258 66.466H43.074V68.65ZM43.074 71.73H45.384C45.8506 71.73 46.2053 71.632 46.448 71.436C46.6906 71.24 46.812 70.9507 46.812 70.568C46.812 70.1947 46.6906 69.91 46.448 69.714C46.2053 69.518 45.8506 69.42 45.384 69.42H43.074V71.73ZM52.4942 72.626C51.8316 72.626 51.2576 72.4813 50.7722 72.192C50.2869 71.9027 49.9089 71.4967 49.6382 70.974C49.3769 70.442 49.2462 69.8167 49.2462 69.098C49.2462 68.3793 49.3769 67.7587 49.6382 67.236C49.9089 66.704 50.2869 66.2933 50.7722 66.004C51.2576 65.7147 51.8316 65.57 52.4942 65.57C53.1476 65.57 53.7169 65.7147 54.2022 66.004C54.6969 66.2933 55.0749 66.704 55.3362 67.236C55.6069 67.7587 55.7422 68.3793 55.7422 69.098C55.7422 69.8167 55.6069 70.442 55.3362 70.974C55.0749 71.4967 54.6969 71.9027 54.2022 72.192C53.7169 72.4813 53.1476 72.626 52.4942 72.626ZM52.4942 71.716C53.1289 71.716 53.6376 71.492 54.0202 71.044C54.4029 70.5867 54.5942 69.938 54.5942 69.098C54.5942 68.2487 54.4029 67.6 54.0202 67.152C53.6376 66.704 53.1289 66.48 52.4942 66.48C51.8502 66.48 51.3369 66.704 50.9542 67.152C50.5809 67.6 50.3942 68.2487 50.3942 69.098C50.3942 69.938 50.5809 70.5867 50.9542 71.044C51.3369 71.492 51.8502 71.716 52.4942 71.716ZM57.0219 72.5L58.0719 70.68C58.3519 70.1853 58.7112 69.8633 59.1499 69.714C58.5712 69.63 58.1232 69.42 57.8059 69.084C57.4886 68.7387 57.3299 68.2907 57.3299 67.74C57.3299 67.1147 57.5352 66.62 57.9459 66.256C58.3659 65.8827 58.9912 65.696 59.8219 65.696H62.8879V72.5H61.8099V69.91H60.8159C60.4426 69.91 60.1252 70.0033 59.8639 70.19C59.6119 70.3767 59.4066 70.6053 59.2479 70.876L58.3239 72.5H57.0219ZM60.0319 69.084H61.8099V66.494H60.0319C59.4812 66.494 59.0752 66.6107 58.8139 66.844C58.5526 67.068 58.4219 67.3807 58.4219 67.782C58.4219 68.1927 58.5526 68.5147 58.8139 68.748C59.0752 68.972 59.4812 69.084 60.0319 69.084ZM64.3868 74.32V71.59H65.1008C65.4275 71.114 65.6608 70.568 65.8008 69.952C65.9408 69.3267 66.0108 68.5753 66.0108 67.698V65.696H70.8268V71.59H71.9048V74.32H70.9248V72.5H65.3528V74.32H64.3868ZM66.1928 71.59H69.7488V66.592H67.0188V67.894C67.0188 68.594 66.9488 69.2707 66.8088 69.924C66.6688 70.5773 66.4635 71.1327 66.1928 71.59ZM73.4139 72.5V65.696H74.5479V68.524H78.2579V65.696H79.3919V72.5H78.2579V69.448H74.5479V72.5H73.4139ZM81.6307 72.5V65.696H82.7647V68.118H84.8227C85.6907 68.118 86.3487 68.3093 86.7967 68.692C87.2447 69.0653 87.4687 69.5973 87.4687 70.288C87.4687 70.9693 87.2354 71.5107 86.7687 71.912C86.3114 72.304 85.6627 72.5 84.8227 72.5H81.6307ZM88.4767 72.5V65.696H89.6107V72.5H88.4767ZM82.7647 71.688H84.7107C85.2334 71.688 85.6394 71.576 85.9287 71.352C86.2274 71.128 86.3767 70.778 86.3767 70.302C86.3767 69.8353 86.2321 69.49 85.9427 69.266C85.6534 69.042 85.2427 68.93 84.7107 68.93H82.7647V71.688ZM94.9373 72.626C93.864 72.626 93.0146 72.3133 92.3893 71.688C91.764 71.0533 91.4513 70.1947 91.4513 69.112C91.4513 68.412 91.5913 67.796 91.8713 67.264C92.1513 66.7227 92.534 66.3073 93.0193 66.018C93.514 65.7193 94.0833 65.57 94.7273 65.57C95.6513 65.57 96.3746 65.8687 96.8973 66.466C97.42 67.054 97.6813 67.866 97.6813 68.902V69.336H92.5573C92.5946 70.1107 92.8186 70.7033 93.2293 71.114C93.64 71.5153 94.2093 71.716 94.9373 71.716C95.348 71.716 95.74 71.6553 96.1133 71.534C96.4866 71.4033 96.8413 71.1933 97.1773 70.904L97.5693 71.702C97.2613 71.9913 96.8693 72.22 96.3933 72.388C95.9173 72.5467 95.432 72.626 94.9373 72.626ZM94.7553 66.41C94.1113 66.41 93.6026 66.6107 93.2293 67.012C92.856 67.4133 92.6366 67.9407 92.5713 68.594H96.7013C96.6733 67.9033 96.4913 67.3667 96.1553 66.984C95.8286 66.6013 95.362 66.41 94.7553 66.41Z" fill="#272526"/>
</g>
<defs>
<filter id="filter0_d" x="0" y="0" width="106" height="98" filterUnits="userSpaceOnUse" color-interpolation-filters="sRGB">
<feFlood flood-opacity="0" result="BackgroundImageFix"/>
<feColorMatrix in="SourceAlpha" type="matrix" values="0 0 0 0 0 0 0 0 0 0 0 0 0 0 0 0 0 0 127 0" result="hardAlpha"/>
<feOffset dx="-5" dy="5"/>
<feGaussianBlur stdDeviation="2.5"/>
<feComposite in2="hardAlpha" operator="out"/>
<feColorMatrix type="matrix" values="0 0 0 0 0.592157 0 0 0 0 0.85098 0 0 0 0 0.631373 0 0 0 0.29 0"/>
<feBlend mode="normal" in2="BackgroundImageFix" result="effect1_dropShadow"/>
<feBlend mode="normal" in="SourceGraphic" in2="effect1_dropShadow" result="shape"/>
</filter>
</defs>
</svg>
