<svg width="106" height="98" viewBox="0 0 106 98" fill="none" xmlns="http://www.w3.org/2000/svg">
<g filter="url(#filter0_d)">
<path d="M10 3C10 1.34315 11.3431 0 13 0H103C104.657 0 106 1.34315 106 3V78C106 83.5229 101.523 88 96 88H20C14.4772 88 10 83.5229 10 78V3Z" fill="#FFEBB7"/>
<path d="M80.1709 46.6675C79.5777 46.7334 79.5118 45.8106 77.0731 45.4811C76.2162 45.3493 74.8321 45.0197 73.3161 44.6242C69.1637 41.9878 65.4726 41.8559 64.8794 41.8559C64.8135 41.8559 64.8135 41.8559 64.8135 41.8559C59.4088 38.2308 55.9813 29.86 50.0493 20.6983C44.1173 11.4707 31.3963 6 31.3963 6C31.3963 6 39.3057 13.7776 42.4035 23.9939C42.5354 24.3894 42.6672 24.8507 42.799 25.2462C42.2058 24.9826 41.4808 24.8507 41.0194 25.9053V27.1576C41.0194 27.1576 41.7444 25.5098 42.9968 26.1031C42.9968 26.1031 41.4149 26.7622 41.6785 28.2122C41.6785 28.2122 42.799 26.9599 43.524 27.1576C43.524 27.1576 42.1399 27.619 42.4035 28.6736C42.4035 28.6736 42.9308 27.9486 43.7877 27.8168C47.0174 36.2534 51.6312 42.7128 51.6312 42.7128C51.6312 42.7128 50.247 43.4378 48.006 44.756C47.2151 45.2174 46.3582 45.4152 45.6332 45.4152C45.4355 45.4152 45.2377 45.4152 45.04 45.4152C44.1832 45.3493 43.3922 44.9538 42.6672 44.4265C41.9422 43.8992 41.2831 43.7674 40.7558 43.7674C40.0307 43.7674 39.6353 44.031 39.6353 44.031C36.5374 45.2833 30.7372 45.7447 28.5621 45.8765C28.2985 45.8765 28.2325 46.2061 28.4303 46.3379L29.353 46.8652C30.2099 47.3266 31.0667 47.6562 32.0554 47.788C35.0874 48.1835 38.6466 48.4471 41.0853 48.4471C42.2717 48.4471 43.1286 48.3812 43.4581 48.2494C44.3809 47.9198 48.2697 47.4584 50.0493 47.2607C50.247 47.2607 50.5107 47.1948 50.7084 47.1948C51.038 47.1948 51.4334 47.1948 51.763 47.2607C54.3336 47.7221 56.245 47.9857 57.9587 47.9857C60.2656 47.9857 62.177 47.5243 64.9453 46.4038C66.2636 46.7334 74.0411 48.7108 75.0298 49.1062C76.0844 49.5676 76.7435 51.6109 78.1936 50.8199C79.6436 50.029 78.7209 48.3812 78.7209 48.3812C78.7209 48.3812 78.7209 49.238 78.1277 49.304C77.5345 49.3699 77.4685 48.4471 75.0298 48.1175C73.0525 47.8539 67.9773 46.4038 66.1977 45.8765C67.1863 45.4811 68.5046 45.3493 69.8228 45.3493C72.4593 45.3493 75.0957 45.8765 75.0957 45.8765L75.0298 45.8106C76.0844 46.0743 76.8753 46.3379 77.139 46.4038C78.1936 46.8652 78.8527 48.9085 80.3027 48.1175C81.7528 47.3266 80.83 45.6788 80.83 45.6788C80.83 45.6788 80.7641 46.6016 80.1709 46.6675ZM40.2944 46.3379C39.8989 46.3379 39.6353 46.0084 39.6353 45.6788C39.6353 45.2833 39.9648 45.0197 40.2944 45.0197C40.6898 45.0197 40.9535 45.3493 40.9535 45.6788C40.9535 46.0743 40.6898 46.3379 40.2944 46.3379Z" fill="#D2B465"/>
<path d="M65.0771 40.9331C65.9339 40.9331 68.1749 41.1309 70.8773 42.3173C75.2934 36.2534 77.2048 23.4665 80.1709 17.5345C82.0164 13.9094 87.6848 8.10913 87.6848 8.10913L82.6755 9.82283C76.9412 12.0638 72.6569 17.7981 69.8227 22.7415C69.625 22.2142 69.2295 21.8188 68.3068 22.0165L67.2522 22.7415C67.2522 22.7415 68.9 22.346 69.2954 23.5984C69.0977 23.4665 67.7795 22.8074 66.7908 23.862C66.7908 23.862 68.3727 23.9938 68.7022 24.653C68.5045 24.5211 67.4499 23.9279 66.8567 24.653C66.8567 24.653 67.7795 24.653 68.3727 25.2462C67.4499 27.0258 66.7249 28.5417 66.1976 29.4645C64.9453 31.7055 62.5065 34.4079 60.7269 36.2534C62.1111 38.2308 63.4952 39.8126 65.0771 40.9331Z" fill="#D2B465"/>
<path d="M38.9103 42.0537C37.9217 42.2514 34.2965 42.6469 33.0442 42.7787C32.7806 42.7787 32.5169 42.9765 32.3851 43.2401C32.1214 43.7674 31.9237 44.2947 31.8578 44.6242C34.2965 44.3606 37.3944 43.8992 39.3058 43.1083C39.5035 42.9764 40.0308 42.7787 40.7559 42.7787C39.899 41.8559 38.9103 42.0537 38.9103 42.0537Z" fill="#D2B465"/>
<path d="M23.8865 73.21L23.3405 72.3C23.7139 72.104 24.0452 71.866 24.3345 71.586C24.6239 71.306 24.8712 70.9373 25.0765 70.48C25.2819 70.0227 25.4405 69.444 25.5525 68.744C25.6645 68.0347 25.7205 67.1527 25.7205 66.098V63.13H32.2585V73H31.0965V64.124H26.7845V66.392C26.7845 67.764 26.6725 68.898 26.4485 69.794C26.2245 70.6807 25.8932 71.3947 25.4545 71.936C25.0252 72.4773 24.5025 72.902 23.8865 73.21ZM37.6795 73.126C36.6062 73.126 35.7568 72.8133 35.1315 72.188C34.5062 71.5533 34.1935 70.6947 34.1935 69.612C34.1935 68.912 34.3335 68.296 34.6135 67.764C34.8935 67.2227 35.2762 66.8073 35.7615 66.518C36.2562 66.2193 36.8255 66.07 37.4695 66.07C38.3935 66.07 39.1168 66.3687 39.6395 66.966C40.1622 67.554 40.4235 68.366 40.4235 69.402V69.836H35.2995C35.3368 70.6107 35.5608 71.2033 35.9715 71.614C36.3822 72.0153 36.9515 72.216 37.6795 72.216C38.0902 72.216 38.4822 72.1553 38.8555 72.034C39.2288 71.9033 39.5835 71.6933 39.9195 71.404L40.3115 72.202C40.0035 72.4913 39.6115 72.72 39.1355 72.888C38.6595 73.0467 38.1742 73.126 37.6795 73.126ZM37.4975 66.91C36.8535 66.91 36.3448 67.1107 35.9715 67.512C35.5982 67.9133 35.3788 68.4407 35.3135 69.094H39.4435C39.4155 68.4033 39.2335 67.8667 38.8975 67.484C38.5708 67.1013 38.1042 66.91 37.4975 66.91ZM43.6014 73V67.106H41.1374V66.196H47.2134V67.106H44.7354V73H43.6014ZM50.5641 73.126C50.0974 73.126 49.6774 73.0373 49.3041 72.86C48.9401 72.6733 48.6508 72.4213 48.4361 72.104C48.2214 71.7867 48.1141 71.432 48.1141 71.04C48.1141 70.5453 48.2401 70.1533 48.4921 69.864C48.7534 69.5747 49.1781 69.3693 49.7661 69.248C50.3634 69.1173 51.1754 69.052 52.2021 69.052H52.6501V68.618C52.6501 68.0393 52.5288 67.624 52.2861 67.372C52.0528 67.1107 51.6748 66.98 51.1521 66.98C50.7414 66.98 50.3448 67.0407 49.9621 67.162C49.5794 67.274 49.1874 67.4607 48.7861 67.722L48.3941 66.896C48.7488 66.644 49.1781 66.4433 49.6821 66.294C50.1954 66.1447 50.6854 66.07 51.1521 66.07C52.0294 66.07 52.6781 66.2847 53.0981 66.714C53.5274 67.1433 53.7421 67.8107 53.7421 68.716V73H52.6781V71.824C52.5008 72.2253 52.2254 72.5427 51.8521 72.776C51.4881 73.0093 51.0588 73.126 50.5641 73.126ZM50.7461 72.272C51.3061 72.272 51.7634 72.0807 52.1181 71.698C52.4728 71.306 52.6501 70.8113 52.6501 70.214V69.794H52.2161C51.4601 69.794 50.8628 69.8313 50.4241 69.906C49.9948 69.9713 49.6914 70.0927 49.5141 70.27C49.3461 70.438 49.2621 70.6713 49.2621 70.97C49.2621 71.3527 49.3928 71.6653 49.6541 71.908C49.9248 72.1507 50.2888 72.272 50.7461 72.272ZM61.639 73.126C60.7056 73.126 59.9543 72.8413 59.385 72.272C58.8156 71.6933 58.4936 70.9187 58.419 69.948H57.061V73H55.955V66.196H57.061V69.024H58.433C58.545 68.1093 58.881 67.3907 59.441 66.868C60.0103 66.336 60.743 66.07 61.639 66.07C62.3016 66.07 62.8756 66.2147 63.361 66.504C63.8463 66.7933 64.2196 67.204 64.481 67.736C64.7516 68.2587 64.887 68.8793 64.887 69.598C64.887 70.3167 64.7516 70.942 64.481 71.474C64.2196 71.9967 63.8463 72.4027 63.361 72.692C62.8756 72.9813 62.3016 73.126 61.639 73.126ZM61.639 72.216C62.283 72.216 62.7916 71.992 63.165 71.544C63.5476 71.0867 63.739 70.438 63.739 69.598C63.739 68.7487 63.5476 68.1 63.165 67.652C62.7916 67.204 62.283 66.98 61.639 66.98C61.0043 66.98 60.4956 67.204 60.113 67.652C59.7303 68.1 59.539 68.7487 59.539 69.598C59.539 70.438 59.7303 71.0867 60.113 71.544C60.4956 71.992 61.0043 72.216 61.639 72.216ZM75.7587 74.82V73H66.7147V66.196H67.8067V72.09H70.6487V66.196H71.7267V72.09H74.5687V66.196H75.6607V72.09H76.7387V74.82H75.7587ZM78.2538 73V66.196H79.2898V71.46L83.2238 66.196H84.1898V73H83.1538V67.736L79.2198 73H78.2538ZM89.5096 73.126C88.4362 73.126 87.5869 72.8133 86.9616 72.188C86.3362 71.5533 86.0236 70.6947 86.0236 69.612C86.0236 68.912 86.1636 68.296 86.4436 67.764C86.7236 67.2227 87.1062 66.8073 87.5916 66.518C88.0862 66.2193 88.6556 66.07 89.2996 66.07C90.2236 66.07 90.9469 66.3687 91.4696 66.966C91.9922 67.554 92.2536 68.366 92.2536 69.402V69.836H87.1296C87.1669 70.6107 87.3909 71.2033 87.8016 71.614C88.2122 72.0153 88.7816 72.216 89.5096 72.216C89.9202 72.216 90.3122 72.1553 90.6856 72.034C91.0589 71.9033 91.4136 71.6933 91.7496 71.404L92.1416 72.202C91.8336 72.4913 91.4416 72.72 90.9656 72.888C90.4896 73.0467 90.0042 73.126 89.5096 73.126ZM89.3276 66.91C88.6836 66.91 88.1749 67.1107 87.8016 67.512C87.4282 67.9133 87.2089 68.4407 87.1436 69.094H91.2736C91.2456 68.4033 91.0636 67.8667 90.7276 67.484C90.4009 67.1013 89.9342 66.91 89.3276 66.91Z" fill="#272526"/>
</g>
<defs>
<filter id="filter0_d" x="0.459616" y="0" width="105.54" height="97.5404" filterUnits="userSpaceOnUse" color-interpolation-filters="sRGB">
<feFlood flood-opacity="0" result="BackgroundImageFix"/>
<feColorMatrix in="SourceAlpha" type="matrix" values="0 0 0 0 0 0 0 0 0 0 0 0 0 0 0 0 0 0 127 0" result="hardAlpha"/>
<feOffset dx="-5" dy="5"/>
<feGaussianBlur stdDeviation="2.27019"/>
<feComposite in2="hardAlpha" operator="out"/>
<feColorMatrix type="matrix" values="0 0 0 0 1 0 0 0 0 0.921569 0 0 0 0 0.717647 0 0 0 0.29 0"/>
<feBlend mode="normal" in2="BackgroundImageFix" result="effect1_dropShadow"/>
<feBlend mode="normal" in="SourceGraphic" in2="effect1_dropShadow" result="shape"/>
</filter>
</defs>
</svg>
