<svg width="106" height="98" viewBox="0 0 106 98" fill="none" xmlns="http://www.w3.org/2000/svg">
<g filter="url(#filter0_d)">
<path d="M10 3C10 1.34315 11.3431 0 13 0H103C104.657 0 106 1.34315 106 3V78C106 83.5229 101.523 88 96 88H20C14.4772 88 10 83.5229 10 78V3Z" fill="#B9E4F2"/>
<path d="M72.0659 37.6348C72.0659 37.6348 67.5121 34.7754 62.1807 32.98C59.9037 32.1821 58.1821 29.9212 57.8489 27.0618C56.8493 18.6832 57.6823 7.91076 50.796 5.98235C49.9074 5.71637 49.0188 5.58337 47.9081 5.58337C46.1865 5.58337 44.0207 5.98235 40.4109 7.0463C38.4116 7.64477 38.7448 8.11025 37.523 8.84171C36.3013 9.57318 33.8022 10.6371 33.2468 11.5016C32.6915 12.366 33.2468 13.962 33.2468 13.962L34.2465 14.9594L34.6352 13.297L35.857 14.1615L36.2457 12.765L37.1898 13.696L37.7452 12.2995L38.7448 13.031L39.2446 11.9671C39.4112 11.9006 39.5778 11.9006 39.5778 11.9006L40.1332 13.696C40.1332 13.696 39.9111 13.8955 39.5223 14.2944H38.8003L38.5227 15.0259C38.4671 15.0924 38.4671 15.0924 38.4116 15.1589L37.6341 15.0259V16.0234L37.5786 16.0899L36.7455 15.8239L36.5789 17.0208L35.6904 16.8213L35.5793 17.8853C35.3016 18.2843 35.0795 18.8827 35.968 19.1487C36.0236 19.1487 36.0791 19.1487 36.0791 19.1487C37.0232 19.1487 39.1891 16.7548 40.5219 16.0234C41.6326 15.3584 43.5764 11.5016 47.0196 11.5016C47.7971 11.5016 48.6856 11.7011 49.6297 12.1666C52.462 13.6295 51.5734 15.6909 52.3509 34.576C52.3509 34.576 52.8508 39.4967 56.6827 42.2896C57.4046 44.6835 58.9041 47.9418 62.2917 50.9342C62.2917 50.9342 64.2355 52.7961 63.6246 49.2052C63.2914 47.2768 63.2358 45.6809 62.8471 44.218C63.1803 44.218 63.5135 44.218 63.8467 44.218C65.5128 44.218 67.0678 44.0185 68.6228 43.952C69.8445 45.8804 71.7883 48.1413 74.7872 49.7372C74.7872 49.7372 76.6754 50.8677 75.2315 47.7423C74.6761 46.6119 74.2874 45.5479 73.8431 44.617C75.3981 45.2154 77.1197 46.2129 79.1189 47.8753C79.8964 48.5403 81.3403 50.8012 82.451 50.8012C82.6176 50.8012 82.7287 50.7347 82.8398 50.6682C83.895 50.0032 79.6743 43.6195 72.0659 37.6348ZM39.9666 9.83917C39.6889 9.83917 39.4668 9.57318 39.4668 9.24069C39.4668 8.90821 39.6889 8.64222 39.9666 8.64222C40.2443 8.64222 40.4664 8.90821 40.4664 9.24069C40.4664 9.57318 40.2443 9.83917 39.9666 9.83917Z" fill="#57A3BB"/>
<path d="M66.2271 45.149C66.0193 46.2129 65.9674 47.4763 66.1232 48.8728C66.1752 49.2717 66.5388 49.5377 66.8505 49.3382C67.5778 48.8063 68.9284 47.5428 70.0194 44.9495C69.344 44.9495 68.7206 45.016 68.0453 45.0825C67.4219 45.016 66.8505 45.0825 66.2271 45.149Z" fill="#57A3BB"/>
<path d="M55.4736 39.9623C54.8502 41.2257 53.8632 43.8856 54.2268 47.1439C54.2788 47.5429 54.6424 47.8089 54.9541 47.6094C55.6814 47.0774 57.032 45.814 58.1749 43.1541C56.9281 42.1567 56.097 41.0262 55.4736 39.9623Z" fill="#57A3BB"/>
<path d="M33.3645 73.4166V63.5466H37.3125C38.3298 63.5466 39.1138 63.7753 39.6645 64.2326C40.2245 64.6806 40.5045 65.3106 40.5045 66.1226C40.5045 66.664 40.3645 67.126 40.0845 67.5086C39.8045 67.8913 39.4172 68.1713 38.9225 68.3486C39.4918 68.498 39.9352 68.7733 40.2525 69.1746C40.5792 69.576 40.7425 70.0846 40.7425 70.7006C40.7425 71.578 40.4578 72.25 39.8885 72.7166C39.3192 73.1833 38.5165 73.4166 37.4805 73.4166H33.3645ZM34.4845 67.9566H37.1445C38.6285 67.9566 39.3705 67.378 39.3705 66.2206C39.3705 65.054 38.6285 64.4706 37.1445 64.4706H34.4845V67.9566ZM34.4845 72.4926H37.3685C38.8618 72.4926 39.6085 71.8906 39.6085 70.6866C39.6085 69.4826 38.8618 68.8806 37.3685 68.8806H34.4845V72.4926ZM45.5694 73.5426C44.9068 73.5426 44.3328 73.398 43.8474 73.1086C43.3621 72.8193 42.9841 72.4133 42.7134 71.8906C42.4521 71.3586 42.3214 70.7333 42.3214 70.0146C42.3214 69.296 42.4521 68.6753 42.7134 68.1526C42.9841 67.6206 43.3621 67.21 43.8474 66.9206C44.3328 66.6313 44.9068 66.4866 45.5694 66.4866C46.2228 66.4866 46.7921 66.6313 47.2774 66.9206C47.7721 67.21 48.1501 67.6206 48.4114 68.1526C48.6821 68.6753 48.8174 69.296 48.8174 70.0146C48.8174 70.7333 48.6821 71.3586 48.4114 71.8906C48.1501 72.4133 47.7721 72.8193 47.2774 73.1086C46.7921 73.398 46.2228 73.5426 45.5694 73.5426ZM45.5694 72.6326C46.2041 72.6326 46.7128 72.4086 47.0954 71.9606C47.4781 71.5033 47.6694 70.8546 47.6694 70.0146C47.6694 69.1653 47.4781 68.5166 47.0954 68.0686C46.7128 67.6206 46.2041 67.3966 45.5694 67.3966C44.9254 67.3966 44.4121 67.6206 44.0294 68.0686C43.6561 68.5166 43.4694 69.1653 43.4694 70.0146C43.4694 70.8546 43.6561 71.5033 44.0294 71.9606C44.4121 72.4086 44.9254 72.6326 45.5694 72.6326ZM49.9151 75.2366V72.5066H50.6291C50.9558 72.0306 51.1891 71.4846 51.3291 70.8686C51.4691 70.2433 51.5391 69.492 51.5391 68.6146V66.6126H56.3551V72.5066H57.4331V75.2366H56.4531V73.4166H50.8811V75.2366H49.9151ZM51.7211 72.5066H55.2771V67.5086H52.5471V68.8106C52.5471 69.5106 52.4771 70.1873 52.3371 70.8406C52.1971 71.494 51.9918 72.0493 51.7211 72.5066ZM58.9423 73.4166V66.6126H60.0763V69.4406H63.7863V66.6126H64.9203V73.4166H63.7863V70.3646H60.0763V73.4166H58.9423ZM67.1591 73.4166V66.6126H68.2931V69.0346H70.3511C71.2191 69.0346 71.8771 69.226 72.3251 69.6086C72.7731 69.982 72.9971 70.514 72.9971 71.2046C72.9971 71.886 72.7637 72.4273 72.2971 72.8286C71.8397 73.2206 71.1911 73.4166 70.3511 73.4166H67.1591ZM74.0051 73.4166V66.6126H75.1391V73.4166H74.0051ZM68.2931 72.6046H70.2391C70.7617 72.6046 71.1677 72.4926 71.4571 72.2686C71.7557 72.0446 71.9051 71.6946 71.9051 71.2186C71.9051 70.752 71.7604 70.4066 71.4711 70.1826C71.1817 69.9586 70.7711 69.8466 70.2391 69.8466H68.2931V72.6046ZM80.4656 73.5426C79.3923 73.5426 78.543 73.23 77.9176 72.6046C77.2923 71.97 76.9796 71.1113 76.9796 70.0286C76.9796 69.3286 77.1196 68.7126 77.3996 68.1806C77.6796 67.6393 78.0623 67.224 78.5476 66.9346C79.0423 66.636 79.6116 66.4866 80.2556 66.4866C81.1796 66.4866 81.903 66.7853 82.4256 67.3826C82.9483 67.9706 83.2096 68.7826 83.2096 69.8186V70.2526H78.0856C78.123 71.0273 78.347 71.62 78.7576 72.0306C79.1683 72.432 79.7376 72.6326 80.4656 72.6326C80.8763 72.6326 81.2683 72.572 81.6416 72.4506C82.015 72.32 82.3696 72.11 82.7056 71.8206L83.0976 72.6186C82.7896 72.908 82.3976 73.1366 81.9216 73.3046C81.4456 73.4633 80.9603 73.5426 80.4656 73.5426ZM80.2836 67.3266C79.6396 67.3266 79.131 67.5273 78.7576 67.9286C78.3843 68.33 78.165 68.8573 78.0996 69.5106H82.2296C82.2016 68.82 82.0196 68.2833 81.6836 67.9006C81.357 67.518 80.8903 67.3266 80.2836 67.3266Z" fill="#272526"/>
</g>
<defs>
<filter id="filter0_d" x="0" y="0" width="106" height="98" filterUnits="userSpaceOnUse" color-interpolation-filters="sRGB">
<feFlood flood-opacity="0" result="BackgroundImageFix"/>
<feColorMatrix in="SourceAlpha" type="matrix" values="0 0 0 0 0 0 0 0 0 0 0 0 0 0 0 0 0 0 127 0" result="hardAlpha"/>
<feOffset dx="-5" dy="5"/>
<feGaussianBlur stdDeviation="2.5"/>
<feComposite in2="hardAlpha" operator="out"/>
<feColorMatrix type="matrix" values="0 0 0 0 0.72549 0 0 0 0 0.894118 0 0 0 0 0.94902 0 0 0 0.29 0"/>
<feBlend mode="normal" in2="BackgroundImageFix" result="effect1_dropShadow"/>
<feBlend mode="normal" in="SourceGraphic" in2="effect1_dropShadow" result="shape"/>
</filter>
</defs>
</svg>
