<svg width="75" height="105" viewBox="0 0 75 105" fill="none" xmlns="http://www.w3.org/2000/svg">
<mask id="mask0_86_661" style="mask-type:alpha" maskUnits="userSpaceOnUse" x="0" y="0" width="75" height="100">
<path d="M0.270106 7.33482C0.267303 3.94408 0.265902 2.2487 1.31841 1.19599C2.37091 0.143283 4.0663 0.144341 7.45706 0.146458L67.4571 0.183912C70.8479 0.186028 72.5433 0.187087 73.5975 1.24111C74.6517 2.29514 74.6531 3.99051 74.656 7.38125L74.7229 88.353C74.7286 95.2555 74.7314 98.7068 72.6067 99.6581C70.4819 100.609 67.9038 98.3111 62.7477 93.7144L42.306 75.4905C40.0268 73.4586 38.8872 72.4426 37.5168 72.4418C36.1464 72.4409 35.0085 73.4555 32.7327 75.4845L12.321 93.6829C7.17256 98.2732 4.59832 100.568 2.47196 99.6143C0.345594 98.6604 0.342741 95.2091 0.337036 88.3065L0.270106 7.33482Z" fill="white"/>
</mask>
<g mask="url(#mask0_86_661)">
<path d="M-100.722 45.933L-99.9807 41.3373L-97.7107 41.3326L-97.152 38.6515L-94.6928 38.6464L-93.0022 35.0059L-89.2188 34.998L-87.5251 32.3146L-83.9277 33.2642L-81.6684 30.0054L-78.2577 31.7211L-75.9952 29.4193L-73.1532 30.7534L-70.134 28.4501L-66.7245 29.783L-64.8385 28.0563L-62.752 29.7748L-60.301 27.2812L-57.6475 28.8071L-55.1946 26.8878L-52.3508 28.7961L-49.708 27.0678L-46.8642 28.9762L-43.2756 27.2459L-40.242 29.3453L-37.2215 27.4248L-34.7547 29.7168L-32.3018 27.7975L-28.323 29.7035L-25.493 27.4005L-22.0822 29.1163L-18.4974 26.2375L-15.2752 28.145L-11.6911 25.0748L-7.33196 27.5543L-4.88094 25.0607L-0.330759 28.1141L2.68588 25.0451L6.47937 28.1L10.2527 25.0294L13.6679 28.0851L17.0628 25.0153L20.664 27.1135L22.1641 23.0905L25.5724 24.0406C25.7615 24.0402 25.7609 23.8487 25.9501 23.8483L27.0719 19.8261L30.0986 19.8199L32.1706 17.1356L35.0082 17.1298L37.079 14.0627L41.2439 15.0112L43.6943 12.3262L47.8649 14.9975C48.2432 14.9967 48.6215 14.9959 48.8107 14.9955C48.9999 14.9951 49.189 14.9947 49.5674 14.994C49.7566 14.9936 49.7566 14.9936 49.9457 14.9932C50.5101 14.0349 51.4515 12.693 52.2038 11.3515C52.2038 11.3515 52.7776 13.2645 52.9743 15.5612C55.6259 16.5128 57.5245 18.6145 59.6079 19.3759C62.8282 20.7092 67.012 27.4003 67.012 27.4003C69.296 31.6069 65.7061 32.9543 65.7061 32.9543C65.7061 32.9543 65.7156 35.8257 64.2079 37.5516C63.0766 38.7025 60.2397 38.8998 58.5372 38.9033C57.9697 38.9045 57.4022 38.9057 57.4022 38.9057C54.0015 40.2527 51.5435 40.6406 49.4627 40.6449C46.4359 40.6512 44.1627 39.6988 41.1354 39.5136C40.9462 39.514 40.5679 39.5148 40.3787 39.5152C35.6494 39.525 32.4436 42.5944 32.0754 45.6579C31.7077 48.9129 29.2662 54.2778 29.2662 54.2778C28.7018 55.2361 27.7585 56.0037 27.0043 56.771L27.0068 57.5367L30.422 60.5924C31.371 61.5475 31.9423 62.6949 32.1359 64.0344C32.3307 65.7569 32.5275 68.0535 31.9644 69.3947C30.8375 71.8855 27.0459 69.4048 27.0459 69.4048C27.0459 69.4048 29.8816 68.8247 28.9294 66.9124C28.9294 66.9124 27.4205 68.2555 25.5269 67.6852C25.5269 67.6852 28.7365 65.7643 27.0251 63.0879C25.8832 60.9846 23.9883 60.0314 23.0412 59.6505C14.1691 65.4116 0.55701 67.9283 -4.55059 67.9389C-5.30727 67.9405 -5.87478 67.9416 -6.25375 67.751C-9.85114 66.8013 -12.1288 64.509 -12.1288 64.509C-12.1288 64.509 -14.7582 70.2571 -17.7793 71.9862C-20.6118 73.5234 -36.4656 84.6588 -36.4656 84.6588L-36.8237 90.7851L-32.2792 92.1157C-26.2226 93.0602 -24.6904 98.7998 -24.6904 98.7998L-28.4738 98.8076C-30.7545 95.5581 -33.0258 95.18 -34.35 95.1827C-34.9175 95.1839 -35.1067 95.1843 -35.1067 95.1843C-31.3201 96.1336 -32.2572 98.8154 -32.2572 98.8154L-39.6348 98.8307C-43.7985 98.2651 -42.8747 91.5633 -42.5102 87.3513L-45.7192 89.4636C-45.7274 86.9751 -42.5171 85.2456 -42.5171 85.2456L-42.5121 86.777C-42.514 86.2028 -42.5159 85.6285 -42.5171 85.2456C-42.9062 81.9922 -40.0718 81.0293 -40.0718 81.0293C-37.8269 73.3677 -26.6993 63.1992 -26.6993 63.1992L-26.3329 59.5614C-33.343 56.3217 -49.2818 41.6151 -69.3414 39.3596C-71.0446 39.1717 -72.7471 39.1752 -74.4497 39.1787C-91.6642 39.2144 -102.225 49.1903 -102.225 49.1903C-102.039 48.2328 -101.475 47.0831 -100.722 45.933ZM52.63 25.8987C53.7651 25.8964 54.5186 24.9377 54.5154 23.9806C54.5117 22.8321 53.5633 22.0683 52.6174 22.0703C51.4824 22.0727 50.7289 23.0313 50.732 23.9884C50.7352 24.9456 51.6842 25.9007 52.63 25.8987Z" fill="#F2F0F1"/>
<path d="M-6.06158 70.4014C-5.49394 70.5915 -4.92694 70.5903 -4.17094 70.5887C-1.71394 70.5836 2.44218 70.0012 7.16404 69.035C5.47375 72.2903 3.2196 76.5033 0.773298 79.7603C0.773298 79.7603 -1.10726 82.6334 2.31049 87.4085C5.91661 91.9919 10.4457 89.8784 11.2155 94.0851L11.2231 96.3806C11.2231 96.3806 9.51391 93.8974 5.73264 93.5226C5.73264 93.5226 9.1422 95.811 9.7155 97.7227L3.28949 97.736C1.21049 97.7403 -0.872295 96.5969 -1.82359 94.686C-4.10545 90.4824 -7.53076 83.4119 -7.16031 81.1157C-6.7905 78.6282 -6.42761 74.0366 -6.06158 70.4014Z" fill="#F2F0F1"/>
<path d="M60.8009 16.8824C60.0433 16.5014 59.2858 16.1203 58.3379 15.357C57.9591 15.1665 57.5797 14.7846 57.0112 14.4032C58.7088 13.252 61.5389 11.5248 64.9368 9.98761C64.9368 9.98761 63.438 14.0078 61.1797 17.073C61.1797 17.073 60.9906 17.0733 60.8009 16.8824Z" fill="#F2F0F1"/>
</g>
</svg>
