<svg width="68" height="35" viewBox="0 0 68 35" fill="none" xmlns="http://www.w3.org/2000/svg">
<path d="M67.3218 9.835C66.6515 9.29794 65.0131 8.53072 61.1405 8.22382C54.4379 7.68677 46.3203 8.37727 38.575 7.37988C31.7979 6.53593 23.9037 9.29794 21.6695 8.22382C19.3609 7.14971 20.4035 4.08081 17.2756 1.24207C14.1477 -1.59666 10.7219 1.31879 10.7219 1.31879C7.51958 0.781736 6.99827 3.31358 6.99827 3.31358C6.99827 3.31358 3.79591 3.46703 2.23196 4.61786C1.33828 5.23164 0.816967 7.07299 0.519073 8.45399C0.370127 9.45139 1.11486 10.2953 2.00854 10.2186L3.05117 11.5996L3.57249 10.2186L5.06196 10.9091L5.5088 9.68155L7.07274 10.6022L7.44511 8.99105L8.71116 9.52811L9.00905 8.1471C9.00905 8.1471 10.573 7.76349 11.0943 9.45138C11.2433 9.835 11.0198 10.2186 10.573 10.6022H9.45589L8.71116 11.9065L7.66853 11.5229L7.14721 12.8272L6.17906 12.2901V13.3642C5.65774 13.6711 5.5088 14.3616 5.95564 14.8987C6.25353 15.2823 6.77485 15.359 7.14721 15.0521L12.4348 13.0573L14.5201 14.0547L14.669 16.1262C14.669 16.1262 11.5411 16.9702 10.6475 18.5814C9.75379 20.1925 10.1262 21.3434 11.1688 20.7296C12.2114 20.1925 12.2859 18.3512 16.0096 17.9676V17.8909C16.3819 18.2745 16.8288 18.5814 17.2011 18.8115C17.3501 20.883 14.1477 21.6503 15.0414 23.2614C16.084 25.1028 16.7543 23.2614 16.7543 23.2614L18.6906 20.883C18.914 21.6503 20.1801 23.8752 21.893 24.8726C25.2443 26.714 27.1061 28.7855 27.1061 28.7855L26.0635 32.238C24.723 32.6216 23.5314 33.7724 23.159 34.4629C23.0101 34.6931 23.159 35 23.4569 35H27.5529C27.7764 35 27.9253 34.9233 27.9998 34.6931C28.2977 34.0793 29.0424 32.6216 29.4148 31.0872C30.8298 27.4812 27.9998 25.4097 27.9998 25.4097C27.2551 24.1054 26.5103 23.108 26.5103 23.108L30.0106 21.1132C36.3408 26.714 40.8092 26.714 40.8092 28.0182C40.8092 29.3225 39.9155 32.1613 38.724 32.3914C37.8303 32.5449 37.2345 33.7724 37.0111 34.4629C36.9366 34.6931 37.0855 34.9233 37.309 34.9233H41.7774C42.0753 34.9233 42.2987 34.6931 42.2987 34.4629C42.6711 31.0871 45.4266 28.3251 44.7563 26.9441C44.0861 25.4864 41.7774 26.4071 39.99 24.0287C38.2027 21.6503 36.9366 20.7296 36.9366 20.7296L40.7347 17.6607C46.2458 12.6737 57.9381 12.9806 67.3963 10.6022C67.4707 10.5255 67.6197 10.0652 67.3218 9.835ZM9.53036 5.0782C9.08352 5.0782 8.78563 4.69459 8.78563 4.31098C8.78563 3.85064 9.158 3.54375 9.53036 3.54375C9.90273 3.54375 10.2751 3.92736 10.2751 4.31098C10.2751 4.77131 9.97721 5.0782 9.53036 5.0782Z" fill="#952929"/>
</svg>
