<svg width="75" height="105" viewBox="0 0 75 105" fill="none" xmlns="http://www.w3.org/2000/svg">
<mask id="mask0_94_312" style="mask-type:alpha" maskUnits="userSpaceOnUse" x="0" y="0" width="75" height="100">
<path d="M0.269862 7.33482C0.267059 3.94408 0.265657 2.2487 1.31816 1.19599C2.37067 0.143283 4.06605 0.144341 7.45682 0.146458L67.4569 0.183912C70.8476 0.186028 72.543 0.187087 73.5973 1.24111C74.6515 2.29514 74.6529 3.99051 74.6557 7.38125L74.7226 88.353C74.7283 95.2555 74.7312 98.7068 72.6064 99.6581C70.4816 100.609 67.9036 98.3111 62.7475 93.7144L42.3058 75.4905C40.0266 73.4586 38.887 72.4426 37.5166 72.4418C36.1462 72.4409 35.0083 73.4555 32.7324 75.4845L12.3208 93.6829C7.17231 98.2732 4.59807 100.568 2.47171 99.6143C0.34535 98.6604 0.342497 95.2091 0.336792 88.3065L0.269862 7.33482Z" fill="white"/>
</mask>
<g mask="url(#mask0_94_312)">
<path d="M-100.723 45.933L-99.981 41.3373L-97.7109 41.3326L-97.1523 38.6515L-94.693 38.6464L-93.0025 35.0059L-89.2191 34.998L-87.5254 32.3146L-83.928 33.2642L-81.6686 30.0054L-78.2579 31.7211L-75.9954 29.4193L-73.1534 30.7534L-70.1343 28.4501L-66.7248 29.783L-64.8388 28.0563L-62.7522 29.7748L-60.3012 27.2812L-57.6478 28.8071L-55.1948 26.8878L-52.351 28.7961L-49.7083 27.0678L-46.8644 28.9762L-43.2759 27.2459L-40.2422 29.3453L-37.2218 27.4248L-34.755 29.7168L-32.3021 27.7975L-28.3232 29.7035L-25.4932 27.4005L-22.0825 29.1163L-18.4977 26.2375L-15.2755 28.145L-11.6913 25.0748L-7.33221 27.5543L-4.88118 25.0607L-0.331003 28.1141L2.68564 25.0451L6.47913 28.1L10.2525 25.0294L13.6676 28.0851L17.0626 25.0153L20.6638 27.1135L22.1639 23.0905L25.5721 24.0406C25.7613 24.0402 25.7607 23.8487 25.9498 23.8483L27.0716 19.8261L30.0983 19.8199L32.1704 17.1356L35.008 17.1298L37.0787 14.0627L41.2436 15.0112L43.694 12.3262L47.8646 14.9975C48.243 14.9967 48.6213 14.9959 48.8105 14.9955C48.9996 14.9951 49.1888 14.9947 49.5671 14.994C49.7563 14.9936 49.7563 14.9936 49.9455 14.9932C50.5098 14.0349 51.4513 12.693 52.2036 11.3515C52.2036 11.3515 52.7774 13.2645 52.9741 15.5612C55.6256 16.5128 57.5243 18.6145 59.6077 19.3759C62.828 20.7092 67.0118 27.4003 67.0118 27.4003C69.2957 31.6069 65.7059 32.9543 65.7059 32.9543C65.7059 32.9543 65.7153 35.8257 64.2076 37.5516C63.0764 38.7025 60.2395 38.8998 58.5369 38.9033C57.9694 38.9045 57.4019 38.9057 57.4019 38.9057C54.0013 40.2527 51.5433 40.6406 49.4624 40.6449C46.4357 40.6512 44.1625 39.6988 41.1351 39.5136C40.946 39.514 40.5676 39.5148 40.3785 39.5152C35.6492 39.525 32.4434 42.5944 32.0751 45.6579C31.7075 48.9129 29.2659 54.2778 29.2659 54.2778C28.7016 55.2361 27.7582 56.0037 27.0041 56.771L27.0066 57.5367L30.4218 60.5924C31.3708 61.5475 31.9421 62.6949 32.1356 64.0344C32.3305 65.7569 32.5272 68.0535 31.9641 69.3947C30.8373 71.8855 27.0457 69.4048 27.0457 69.4048C27.0457 69.4048 29.8813 68.8247 28.9292 66.9124C28.9292 66.9124 27.4202 68.2555 25.5266 67.6852C25.5266 67.6852 28.7362 65.7643 27.0249 63.0879C25.8829 60.9846 23.9881 60.0314 23.041 59.6505C14.1689 65.4116 0.556768 67.9283 -4.55084 67.9389C-5.30752 67.9405 -5.87503 67.9416 -6.254 67.751C-9.85139 66.8013 -12.129 64.509 -12.129 64.509C-12.129 64.509 -14.7585 70.2571 -17.7795 71.9862C-20.6121 73.5234 -36.4658 84.6588 -36.4658 84.6588L-36.824 90.7851L-32.2795 92.1157C-26.2229 93.0602 -24.6906 98.7998 -24.6906 98.7998L-28.474 98.8076C-30.7548 95.5581 -33.0261 95.18 -34.3503 95.1827C-34.9178 95.1839 -35.107 95.1843 -35.107 95.1843C-31.3204 96.1336 -32.2574 98.8154 -32.2574 98.8154L-39.6351 98.8307C-43.7987 98.2651 -42.8749 91.5633 -42.5104 87.3513L-45.7194 89.4636C-45.7276 86.9751 -42.5174 85.2456 -42.5174 85.2456L-42.5123 86.777C-42.5142 86.2028 -42.5161 85.6285 -42.5174 85.2456C-42.9064 81.9922 -40.072 81.0293 -40.072 81.0293C-37.8272 73.3677 -26.6995 63.1992 -26.6995 63.1992L-26.3332 59.5614C-33.3432 56.3217 -49.282 41.6151 -69.3417 39.3596C-71.0448 39.1717 -72.7474 39.1752 -74.4499 39.1787C-91.6644 39.2144 -102.225 49.1903 -102.225 49.1903C-102.039 48.2328 -101.475 47.0831 -100.723 45.933ZM52.6298 25.8987C53.7648 25.8964 54.5184 24.9377 54.5152 23.9806C54.5114 22.8321 53.563 22.0683 52.6172 22.0703C51.4822 22.0727 50.7286 23.0313 50.7318 23.9884C50.7349 24.9456 51.6839 25.9007 52.6298 25.8987Z" fill="#272526"/>
<path d="M-6.06182 70.4013C-5.49419 70.5914 -4.92719 70.5903 -4.17118 70.5887C-1.71418 70.5836 2.44194 70.0011 7.1638 69.0349C5.4735 72.2903 3.21935 76.5033 0.773054 79.7602C0.773054 79.7602 -1.10751 82.6334 2.31024 87.4085C5.91636 91.9919 10.4454 89.8784 11.2153 94.0851L11.2229 96.3805C11.2229 96.3805 9.51367 93.8973 5.7324 93.5226C5.7324 93.5226 9.14196 95.811 9.71526 97.7226L3.28925 97.736C1.21024 97.7403 -0.872539 96.5969 -1.82384 94.686C-4.1057 90.4824 -7.531 83.4119 -7.16055 81.1157C-6.79074 78.6282 -6.42785 74.0365 -6.06182 70.4013Z" fill="#272526"/>
<path d="M60.8006 16.8824C60.0431 16.5014 59.2855 16.1203 58.3376 15.357C57.9589 15.1665 57.5794 14.7846 57.0109 14.4032C58.7086 13.252 61.5386 11.5248 64.9365 9.98761C64.9365 9.98761 63.4377 14.0078 61.1794 17.073C61.1794 17.073 60.9904 17.0733 60.8006 16.8824Z" fill="#272526"/>
</g>
</svg>
