<svg width="60" height="45" viewBox="0 0 60 45" fill="none" xmlns="http://www.w3.org/2000/svg">
<path d="M52.171 40.6675C51.5778 40.7334 51.5119 39.8106 49.0732 39.4811C48.2164 39.3493 46.8322 39.0197 45.3162 38.6242C41.1638 35.9878 37.4727 35.8559 36.8795 35.8559C36.8136 35.8559 36.8136 35.8559 36.8136 35.8559C31.4089 32.2308 27.9815 23.86 22.0494 14.6983C16.1174 5.47067 3.39643 0 3.39643 0C3.39643 0 11.3058 7.77758 14.4037 17.9939C14.5355 18.3894 14.6673 18.8507 14.7991 19.2462C14.2059 18.9826 13.4809 18.8507 13.0195 19.9053V21.1576C13.0195 21.1576 13.7446 19.5098 14.9969 20.1031C14.9969 20.1031 13.415 20.7622 13.6786 22.2122C13.6786 22.2122 14.7991 20.9599 15.5242 21.1576C15.5242 21.1576 14.14 21.619 14.4037 22.6736C14.4037 22.6736 14.931 21.9486 15.7878 21.8168C19.0175 30.2534 23.6313 36.7128 23.6313 36.7128C23.6313 36.7128 22.2472 37.4378 20.0062 38.756C19.2152 39.2174 18.3584 39.4152 17.6333 39.4152C17.4356 39.4152 17.2379 39.4152 17.0401 39.4152C16.1833 39.3493 15.3923 38.9538 14.6673 38.4265C13.9423 37.8992 13.2832 37.7674 12.7559 37.7674C12.0309 37.7674 11.6354 38.031 11.6354 38.031C8.53753 39.2833 2.73731 39.7447 0.562225 39.8765C0.298578 39.8765 0.232667 40.2061 0.430402 40.3379L1.35316 40.8652C2.21002 41.3266 3.06687 41.6562 4.05554 41.788C7.08748 42.1835 10.6467 42.4471 13.0854 42.4471C14.2718 42.4471 15.1287 42.3812 15.4583 42.2494C16.381 41.9198 20.2698 41.4584 22.0494 41.2607C22.2472 41.2607 22.5108 41.1948 22.7085 41.1948C23.0381 41.1948 23.4336 41.1948 23.7631 41.2607C26.3337 41.7221 28.2451 41.9857 29.9588 41.9857C32.2657 41.9857 34.1772 41.5243 36.9455 40.4038C38.2637 40.7334 46.0413 42.7108 47.0299 43.1062C48.0845 43.5676 48.7436 45.6109 50.1937 44.8199C51.6438 44.029 50.721 42.3812 50.721 42.3812C50.721 42.3812 50.721 43.238 50.1278 43.304C49.5346 43.3699 49.4687 42.4471 47.0299 42.1175C45.0526 41.8539 39.9774 40.4038 38.1978 39.8765C39.1865 39.4811 40.5047 39.3493 41.8229 39.3493C44.4594 39.3493 47.0959 39.8765 47.0959 39.8765L47.0299 39.8106C48.0845 40.0743 48.8755 40.3379 49.1391 40.4038C50.1937 40.8652 50.8528 42.9085 52.3029 42.1175C53.7529 41.3266 52.8302 39.6788 52.8302 39.6788C52.8302 39.6788 52.7643 40.6016 52.171 40.6675ZM12.2945 40.3379C11.899 40.3379 11.6354 40.0084 11.6354 39.6788C11.6354 39.2833 11.9649 39.0197 12.2945 39.0197C12.69 39.0197 12.9536 39.3493 12.9536 39.6788C12.9536 40.0743 12.69 40.3379 12.2945 40.3379Z" fill="#D2B465"/>
<path d="M37.0772 34.9332C37.9341 34.9332 40.1751 35.1309 42.8774 36.3173C47.2935 30.2535 49.205 17.4666 52.171 11.5346C54.0165 7.90942 59.6849 2.10919 59.6849 2.10919L54.6756 3.8229C48.9413 6.06389 44.6571 11.7982 41.8229 16.7416C41.6251 16.2143 41.2297 15.8188 40.3069 16.0166L39.2523 16.7416C39.2523 16.7416 40.9001 16.3461 41.2956 17.5984C41.0978 17.4666 39.7796 16.8075 38.7909 17.8621C38.7909 17.8621 40.3728 17.9939 40.7024 18.653C40.5046 18.5212 39.45 17.928 38.8568 18.653C38.8568 18.653 39.7796 18.653 40.3728 19.2462C39.45 21.0258 38.725 22.5418 38.1977 23.4646C36.9454 25.7056 34.5067 28.4079 32.7271 30.2535C34.1112 32.2308 35.4953 33.8127 37.0772 34.9332Z" fill="#D2B465"/>
<path d="M10.9105 36.0536C9.92178 36.2514 6.29664 36.6468 5.04432 36.7787C4.78067 36.7787 4.51703 36.9764 4.3852 37.24C4.12156 37.7673 3.92382 38.2946 3.85791 38.6242C6.29664 38.3605 9.39449 37.8991 11.3059 37.1082C11.5037 36.9764 12.031 36.7787 12.756 36.7787C11.8991 35.8559 10.9105 36.0536 10.9105 36.0536Z" fill="#D2B465"/>
</svg>
