<svg width="70" height="45" viewBox="0 0 70 45" fill="none" xmlns="http://www.w3.org/2000/svg">
<path d="M32.2106 7.84601C32.7407 7.84601 33.2709 7.84601 33.801 7.92174C35.0884 3.75651 27.9697 0.500061 27.9697 0.500061C27.9697 0.500061 24.1074 4.36237 23.5015 6.71004C23.1986 7.92174 23.8044 9.05771 24.486 9.89076C26.6065 8.67906 29.1056 7.84601 32.2106 7.84601Z" fill="#D0F0D5"/>
<path d="M60.6856 29.4295C60.6856 29.4295 59.1709 29.1266 58.3379 29.6567C59.0952 30.4141 59.8525 31.0199 60.6856 31.55C60.9128 30.7927 60.6856 29.4295 60.6856 29.4295Z" fill="#D0F0D5"/>
<path d="M57.7319 28.9752C57.8834 28.8994 57.9591 28.748 58.0348 28.5965C58.4892 27.612 58.262 25.1886 58.262 25.1886C58.262 25.1886 55.9901 24.7342 54.7026 25.4158C55.6871 26.779 56.6717 27.9149 57.7319 28.9752Z" fill="#D0F0D5"/>
<path d="M64.3965 28.7478C64.4722 28.5206 64.1693 28.4449 64.0179 28.5963L62.0488 32.3829C62.5032 32.6101 62.8819 32.8373 63.3363 33.0645L64.3965 28.7478Z" fill="#D0F0D5"/>
<path d="M65.2298 33.7463L66.8201 30.717C66.8959 30.4898 66.6687 30.3383 66.5172 30.4898L64.0181 33.2919C64.4725 33.5191 64.8511 33.6705 65.2298 33.7463Z" fill="#D0F0D5"/>
<path d="M68.789 31.6256L65.7598 33.8975C66.1384 33.9733 66.5928 34.049 66.9715 34.1247C67.1229 34.1247 67.3501 34.1247 67.6531 34.049L69.0162 31.8528C69.1677 31.7013 68.9405 31.4741 68.789 31.6256Z" fill="#D0F0D5"/>
<path d="M50.5381 18.9786C51.0682 19.736 51.5226 20.4933 52.0527 21.3263C52.81 22.6137 53.5673 23.8254 54.3247 24.8857C54.6276 24.7342 55.0062 24.507 55.1577 24.2041C56.0665 22.9167 56.3694 19.2816 56.3694 19.2816C56.3694 19.2816 52.5828 17.6912 50.5381 18.9786Z" fill="#D0F0D5"/>
<path d="M13.808 18.9028C14.4139 18.5999 15.0197 18.2969 15.6256 17.9183C15.8528 17.7668 16.0042 17.6911 16.2314 17.5396C16.5343 17.3882 17.0645 16.858 17.5946 16.1765C16.4586 15.1919 14.0352 15.3434 14.0352 15.3434C14.0352 15.3434 13.4294 17.6911 13.7323 18.6756C13.7323 18.7513 13.808 18.8271 13.808 18.9028Z" fill="#D0F0D5"/>
<path d="M11.687 19.4328C12.1414 19.4328 12.6715 19.3571 13.2016 19.1299C12.5958 18.1454 11.6113 17.3881 11.6113 17.3881C11.6113 17.3881 11.0812 18.4483 10.9297 19.2813C11.0054 19.2813 11.0811 19.3571 11.1569 19.3571C11.3083 19.4328 11.5355 19.4328 11.687 19.4328Z" fill="#D0F0D5"/>
<path d="M18.4273 15.2678C19.7904 13.7532 21.5323 11.7085 23.9557 10.1938C22.5925 7.69469 17.367 7.99762 17.367 7.99762C17.367 7.99762 16.3068 11.9357 16.8369 13.6775C17.0641 14.4348 17.7457 14.8892 18.4273 15.2678Z" fill="#D0F0D5"/>
<path d="M39.0266 9.05766C39.0266 9.05766 40.9199 9.73925 43.4948 11.6325C46.6755 8.98193 43.1919 2.31757 43.1919 2.31757C43.1919 2.31757 37.7392 3.07488 35.8459 4.51378C34.7857 5.34682 34.6342 6.86145 34.7099 7.92169C36.0731 8.22462 37.512 8.52754 39.0266 9.05766Z" fill="#D0F0D5"/>
<path d="M49.9318 18.1454C50.9163 17.8425 52.2038 17.2366 52.6581 16.1007C53.4155 14.1317 52.4309 9.43631 52.4309 9.43631C52.4309 9.43631 45.5394 8.60327 44.252 12.1626C45.9938 13.5258 47.9628 15.4948 49.9318 18.1454Z" fill="#D0F0D5"/>
<path d="M67.9559 35.1093C67.5015 35.1093 67.0471 35.185 67.0471 35.185C65.8354 35.0335 64.6237 34.7306 63.412 34.2005H63.3363C62.8062 33.9733 62.2761 33.6704 61.6702 33.3674C61.3673 33.216 61.1401 33.0645 60.8372 32.8373C60.8372 32.8373 60.7614 32.8373 60.7614 32.7616C60.4585 32.6101 60.2313 32.3829 59.9284 32.2315C59.1711 31.7014 58.4895 31.0955 57.7322 30.4139C57.5807 30.2625 57.4292 30.111 57.2021 29.9595C55.8389 28.5964 54.4757 27.006 53.1883 25.1127C52.5067 24.1282 51.7494 22.9922 51.0678 21.8563C50.6134 21.099 50.159 20.4174 49.7046 19.7358C49.4017 19.2814 49.0231 18.827 48.7201 18.3726C47.1298 16.2521 45.4637 14.586 43.9491 13.3743C43.7219 13.1472 43.4189 12.9957 43.1917 12.7685C42.9645 12.617 42.7374 12.3898 42.5102 12.2384C40.5411 10.8752 39.1022 10.1936 38.6479 10.0422C37.2847 9.58777 36.073 9.28485 34.8613 9.05765C34.6341 9.05765 34.4069 8.98192 34.1797 8.98192C33.9525 8.98192 33.7253 8.90619 33.5738 8.90619C33.4981 8.90619 33.4981 8.90619 33.4224 8.90619C33.2709 8.90619 33.1195 8.90619 32.8923 8.90619C32.6651 8.90619 32.4379 8.90619 32.2107 8.90619C31.9835 8.90619 31.6806 8.90619 31.4534 8.90619C31.3776 8.90619 31.3019 8.90619 31.2262 8.90619C30.999 8.90619 30.7718 8.90619 30.6203 8.98192H30.5446C30.3174 8.98192 30.0902 9.05765 29.863 9.05765C29.7873 9.05765 29.7115 9.05765 29.7115 9.05765C29.5601 9.05765 29.3329 9.13339 29.1814 9.13339C29.1057 9.13339 29.1057 9.13339 29.03 9.13339C28.8028 9.20912 28.5756 9.20911 28.4241 9.28485C28.3484 9.28485 28.3484 9.28485 28.2726 9.36058C28.1212 9.43631 27.9697 9.43631 27.8183 9.51204C27.7425 9.51204 27.6668 9.58777 27.6668 9.58777C27.4396 9.6635 27.2881 9.73924 27.0609 9.81497C26.9852 9.81497 26.9852 9.8907 26.9095 9.8907C26.758 9.96643 26.6066 10.0422 26.4551 10.0422C26.3794 10.0422 26.3036 10.1179 26.2279 10.1179C26.0764 10.1936 25.925 10.2694 25.7735 10.3451C25.6978 10.3451 25.622 10.4208 25.622 10.4208C25.4706 10.4965 25.3191 10.5723 25.2434 10.648C25.1677 10.7237 25.0919 10.7237 25.0162 10.7995C24.8647 10.8752 24.789 10.9509 24.7133 11.0267C24.6375 11.0267 24.6375 11.1024 24.5618 11.1024C22.5171 12.4656 20.9267 14.1317 19.715 15.5706C19.5635 15.722 19.4878 15.8735 19.3363 15.9492C18.9577 16.3279 18.6548 16.7065 18.3518 17.0852C17.8217 17.691 17.3673 18.1454 16.9129 18.3726C16.0799 18.827 15.1711 19.4329 14.2623 19.8115C14.1109 19.8872 13.8837 19.963 13.7322 20.0387C13.1264 20.2659 12.5205 20.4174 11.8389 20.4174C11.6117 20.4174 11.3845 20.4174 11.1573 20.3416C10.0214 20.1902 8.8854 19.7358 7.82515 19.7358C7.37077 19.7358 6.91638 19.8115 6.46199 20.0387C4.5687 21.0232 2.82688 22.3107 2.82688 22.3107C1.69091 22.9165 0.933594 25.1884 0.933594 25.1884L3.81139 24.8098C2.82688 25.1884 1.23652 25.7943 1.23652 25.7943C1.69091 26.4002 2.44822 26.7788 3.28127 26.7788C3.357 26.7788 3.357 26.7788 3.43273 26.7788L5.85614 26.6273C6.15906 26.5516 6.53772 26.5516 6.99211 26.5516C7.2193 26.5516 7.52223 26.5516 7.74942 26.5516C8.50674 26.5516 9.33978 26.5516 10.4758 26.2487C10.5515 26.2487 10.6272 26.2487 10.7029 26.2487C11.7632 26.2487 13.6565 27.6119 14.4138 28.0662C17.0644 29.6566 17.443 29.8838 17.443 29.8838H17.3673L17.5945 30.5654C18.4276 32.8373 17.5945 34.4277 17.5945 34.4277C17.5945 34.4277 14.7924 39.0473 13.8079 40.7891C13.8079 40.7891 12.8234 41.6222 12.4448 42.7581H16.6857C16.6857 42.7581 17.2916 40.5619 17.2916 39.6532C17.2916 38.7444 21.9112 36.5482 21.9869 34.6549C22.1384 32.7616 22.3656 31.9285 24.1074 31.3227C26.0007 32.1557 28.2726 32.6859 30.7718 32.6859C33.8768 32.6859 35.8458 32.08 37.3604 31.3227C37.6633 32.6101 37.9663 33.7461 38.1935 34.352C39.0265 36.3967 40.5411 34.352 41.147 38.1385C41.147 38.1385 40.5411 41.2435 39.5566 42.228C38.875 42.9096 38.6479 43.7426 38.4964 44.197C38.4964 44.3485 38.5721 44.5 38.7993 44.5H43.6461C43.6461 44.5 44.0248 43.364 43.6461 41.8494C43.2675 40.3347 44.6306 39.7289 43.7976 35.8666C43.0403 32.0043 44.4034 34.5791 44.0248 30.5654C44.7821 30.3382 45.5394 30.2625 46.221 30.2625C48.0386 30.2625 49.4774 30.8683 50.462 31.4742C57.1263 35.4879 61.6702 36.9268 64.6237 36.9268C66.5928 36.9268 67.8045 36.321 68.4103 35.3365C68.5618 35.185 68.2588 35.1093 67.9559 35.1093ZM6.15906 23.2194C5.78041 23.2194 5.47748 22.9165 5.47748 22.5378C5.47748 22.1592 5.78041 21.8563 6.15906 21.8563C6.53772 21.8563 6.84065 22.1592 6.84065 22.5378C6.84065 22.9165 6.53772 23.2194 6.15906 23.2194Z" fill="#D0F0D5"/>
<path d="M30.1656 35.0337C29.4083 34.8823 28.4238 35.5639 28.3481 34.5793C28.3481 34.2764 28.3481 33.8978 28.3481 33.5948C26.9092 33.3676 25.4703 33.0647 24.0314 32.4589C23.9557 32.4589 23.8799 32.5346 23.8042 32.5346C24.1829 33.5948 24.6372 34.8823 25.1674 35.791C26.3033 37.9873 28.8782 38.1387 29.787 38.1387C30.4686 38.1387 30.62 36.6241 30.6958 35.791C30.7715 35.4124 30.5443 35.1095 30.1656 35.0337Z" fill="#D0F0D5"/>
<path d="M32.9682 34.0492C33.1954 35.7153 32.9682 38.896 32.3623 39.6533C31.7565 40.4106 30.772 40.7893 30.772 41.8495H35.1644C35.1644 41.8495 36.1489 41.1679 36.1489 40.4106C36.1489 39.6533 35.9974 39.0474 36.1489 35.791C36.2246 34.7307 36.3761 33.6705 36.4518 32.8375C35.3159 33.2161 34.1799 33.519 32.8167 33.5948C32.8925 33.7462 32.8925 33.8977 32.9682 34.0492Z" fill="#D0F0D5"/>
</svg>
