<svg width="50" height="47" viewBox="0 0 50 47" fill="none" xmlns="http://www.w3.org/2000/svg">
<path d="M39.0659 32.6347C39.0659 32.6347 34.5121 29.7754 29.1807 27.98C26.9037 27.182 25.1821 24.9211 24.8489 22.0618C23.8493 13.6832 24.6823 2.9107 17.796 0.982294C16.9074 0.716307 16.0188 0.583313 14.9081 0.583313C13.1865 0.583313 11.0207 0.982293 7.41087 2.04624C5.4116 2.64471 5.74481 3.11019 4.52304 3.84165C3.30126 4.57312 0.802176 5.63706 0.246823 6.50152C-0.308529 7.36598 0.246823 8.9619 0.246823 8.9619L1.24646 9.95935L1.6352 8.29694L2.85698 9.16139L3.24573 7.76496L4.18982 8.69591L4.74518 7.29948L5.74481 8.03095L6.24463 6.967C6.41123 6.9005 6.57784 6.9005 6.57784 6.9005L7.13319 8.69591C7.13319 8.69591 6.91105 8.89541 6.5223 9.29439H5.80035L5.52267 10.0258C5.46713 10.0923 5.46713 10.0923 5.4116 10.1588L4.63411 10.0258V11.0233L4.57857 11.0898L3.74554 10.8238L3.57894 12.0208L2.69037 11.8213L2.5793 12.8852C2.30163 13.2842 2.07949 13.8827 2.96805 14.1486C3.02358 14.1486 3.07912 14.1486 3.07912 14.1486C4.02322 14.1486 6.18909 11.7548 7.52194 11.0233C8.63264 10.3583 10.5764 6.50152 14.0196 6.50152C14.7971 6.50152 15.6856 6.70101 16.6297 7.16649C19.462 8.62942 18.5734 10.6908 19.3509 29.5759C19.3509 29.5759 19.8508 34.4967 23.6827 37.2895C24.4046 39.6834 25.9041 42.9417 29.2917 45.9341C29.2917 45.9341 31.2355 47.796 30.6246 44.2052C30.2914 42.2768 30.2358 40.6808 29.8471 39.2179C30.1803 39.2179 30.5135 39.2179 30.8467 39.2179C32.5128 39.2179 34.0678 39.0184 35.6228 38.9519C36.8445 40.8803 38.7883 43.1412 41.7872 44.7372C41.7872 44.7372 43.6754 45.8676 42.2315 42.7422C41.6761 41.6118 41.2874 40.5479 40.8431 39.6169C42.3981 40.2154 44.1197 41.2128 46.1189 42.8752C46.8964 43.5402 48.3403 45.8011 49.451 45.8011C49.6176 45.8011 49.7287 45.7346 49.8398 45.6681C50.895 45.0031 46.6743 38.6194 39.0659 32.6347ZM6.96659 4.8391C6.68891 4.8391 6.46677 4.57312 6.46677 4.24063C6.46677 3.90815 6.68891 3.64216 6.96659 3.64216C7.24426 3.64216 7.4664 3.90815 7.4664 4.24063C7.4664 4.57312 7.24426 4.8391 6.96659 4.8391Z" fill="#D7F5FE"/>
<path d="M33.2272 40.149C33.0194 41.2129 32.9675 42.4763 33.1233 43.8728C33.1753 44.2717 33.5389 44.5377 33.8506 44.3382C34.5779 43.8063 35.9286 42.5428 37.0195 39.9495C36.3441 39.9495 35.7208 40.016 35.0454 40.0825C34.422 40.016 33.8506 40.0825 33.2272 40.149Z" fill="#D7F5FE"/>
<path d="M22.4735 34.9622C21.8501 36.2257 20.8631 38.8856 21.2267 42.1439C21.2786 42.5429 21.6423 42.8089 21.954 42.6094C22.6813 42.0774 24.0319 40.814 25.1748 38.1541C23.928 37.1566 23.0968 36.0262 22.4735 34.9622Z" fill="#D7F5FE"/>
</svg>
